<!-- Icon made by Becris https://www.flaticon.com/authors/becris -->
<svg height="512" viewBox="0 0 464 464" width="512" xmlns="http://www.w3.org/2000/svg"><path d="m0 0h464v64h-464z" fill="#94d8e3"/><path d="m232 0h232v64h-232z" fill="#689cb0"/><path d="m0 64v400l72-16 80 16 80-16 80 16 80-16 72 16v-400z" fill="#fff"/><path d="m232 448 80 16 80-16 72 16v-400h-232z" fill="#e9e4e4"/><path d="m128 104h208v128h-208z" fill="#f2cf77"/><path d="m40 296h96v64h-96z" fill="#f2cf77"/><path d="m184 296h96v64h-96z" fill="#f2cf77"/><path d="m328 296h96v64h-96z" fill="#f2cf77"/><g fill="#655959"><path d="m24 24h16v16h-16z"/><path d="m56 24h16v16h-16z"/><path d="m88 24h16v16h-16z"/><path d="m144 24h184v16h-184z"/><path d="m424 24h16v16h-16z"/><path d="m344 96h-224v144h224zm-127.264 72-80.736 49.688v-99.376zm-60.472-56h151.472l-75.736 46.608zm75.736 65.392 75.736 46.608h-151.472zm15.264-9.392 80.736-49.688v99.376z"/><path d="m397.656 197.656 29.656-29.656-29.656-29.656-11.312 11.312 18.344 18.344-18.344 18.344z"/><path d="m66.344 138.344-29.656 29.656 29.656 29.656 11.312-11.312-18.344-18.344 18.344-18.344z"/><path d="m160 256h16v16h-16z"/><path d="m192 256h16v16h-16z"/><path d="m224 256h16v16h-16z"/><path d="m256 256h16v16h-16z"/><path d="m288 256h16v16h-16z"/><path d="m32 368h112v-80h-112zm70.4-40 25.6-17.056v34.112zm7.152 24h-43.152l21.6-14.4zm-21.552-33.6-21.6-14.4h43.2zm-14.4 9.6-25.6 17.056v-34.112z"/><path d="m176 368h112v-80h-112zm70.4-40 25.6-17.056v34.112zm7.152 24h-43.152l21.6-14.4zm-21.552-33.6-21.6-14.4h43.2zm-14.4 9.6-25.6 17.056v-34.112z"/><path d="m320 368h112v-80h-112zm70.4-40 25.6-17.056v34.112zm7.152 24h-43.152l21.6-14.4zm-21.552-33.6-21.6-14.4h43.2zm-14.4 9.6-25.6 17.056v-34.112z"/><path d="m48 384h80v16h-80z"/><path d="m192 384h80v16h-80z"/><path d="m336 384h80v16h-80z"/></g></svg>